<svg xmlns="http://www.w3.org/2000/svg" height="48" viewBox="0 96 960 960" width="48">
<defs>
<linearGradient id="gradient" x1="0%" y1="0%" x2="100%" y2="0%">
    <stop offset="0%"   stop-color="#ad73dd"/>
    <stop offset="100%" stop-color="#9868e4"/>
</linearGradient>
</defs>
<path fill="url(#gradient)" 
d="M196 725q-20-36-28-72.5t-8-74.5q0-131 94.5-225.5T480 258h43l-80-80 39-39 149 149-149 149-40-40 79-79h-41q-107 0-183.5 76.5T220 578q0 29 5.5 55t13.5 49l-43 43Zm280 291L327 867l149-149 39 39-80 80h45q107 0 183.5-76.5T740 577q0-29-5-55t-15-49l43-43q20 36 28.5 72.5T800 577q0 131-94.5 225.5T480 897h-45l80 80-39 39Z"/></svg>