<svg xmlns="http://www.w3.org/2000/svg" height="48" viewBox="0 96 960 960" width="48">
<defs>
<linearGradient id="gradient" x1="0%" y1="0%" x2="100%" y2="0%">
    <stop offset="0%"   stop-color="#ad73dd"/>
    <stop offset="100%" stop-color="#9868e4"/>
</linearGradient>
</defs>
<path fill="url(#gradient)" 
d="m346 996-76-130-151-31 17-147-96-112 96-111-17-147 151-31 76-131 134 62 134-62 77 131 150 31-17 147 96 111-96 112 17 147-150 31-77 130-134-62-134 62Zm27-79 107-45 110 45 67-100 117-30-12-119 81-92-81-94 12-119-117-28-69-100-108 45-110-45-67 100-117 28 12 119-81 94 81 92-12 121 117 28 70 100Zm107-341Zm-43 133 227-225-45-41-182 180-95-99-46 45 141 140Z"/></svg>