<svg xmlns="http://www.w3.org/2000/svg" id="Layer_1" data-name="Layer 1" viewBox="0 0 491.47 900" data-stylerecorder="true" style="stroke-dashoffset: 0; stroke-dasharray: 0; stroke-width: 0px; stroke: transparent; fill: rgb(255, 255, 255); text-align: left; line-height: 0px; letter-spacing: 0px; font-weight: 400; font-size: 19px;"><path d="M74.11,588.94c0,8.29-6.27,16.89-13.93,16.89s-13.75-8.49-13.75-16.89C46.43,568.3,60.26,555,60.26,555S74.11,568.3,74.11,588.94ZM279.18,755.28c-3.13-19.77-18.41-30.39-18.41-30.39s-11.22,14.81-8.09,34.59c1.27,8,8.39,15.25,15.72,14.09S280.44,763.22,279.18,755.28Zm-87.83-9.93s-14,1.93-23,14.26c-3.64,5-3.69,12.72.88,16s12.05.9,15.65-4C193.86,759.29,191.35,745.35,191.35,745.35Zm-131.87-271s-13.83,13.28-13.83,33.93c0,8.4,6.09,16.89,13.75,16.89s13.93-8.61,13.93-16.89C73.33,487.67,59.48,474.39,59.48,474.39Zm378.33,4.76S424,492.43,424,513.07c0,8.4,6.08,16.9,13.74,16.9s13.93-8.61,13.93-16.9C451.66,492.43,437.81,479.15,437.81,479.15Zm50.26,120C488.07,744.24,378.32,895,244.16,895S3.39,746.27,3.39,599.12C3.39,237.57,245.49,5,245.49,5S488.07,237.57,488.07,599.12Zm-228.61,20h23.89V567.52l10.89-21.77,20.11,73.34h25.31L308.9,516.18l27.21-54.9H311.27l-27.92,63.18V461.28H259.46ZM101.18,576.68q0-15.63-4.54-24.88t-15-14.45q9.09-6.37,12.92-14.52t3.83-20.91q0-40.64-39.41-40.64h-33V619.09H61.07q11.62,0,17.68-1.65a25.3,25.3,0,0,0,10.8-6.16Q101.18,600.38,101.18,576.68Zm32.26,61.83H111.91V796.32h21.53Zm11.27-177.23h-23.9V619.09h23.9Zm71.3,335c-.48-3-.87-5.59-1.19-7.81a69.25,69.25,0,0,1-.59-7.68q-.12-4.38-.23-10.65c-.09-4.18-.12-9.66-.12-16.44V714.93q0-11.82-1.2-17.39a26,26,0,0,0-4.78-10.29,21.26,21.26,0,0,0-9.21-7.57,32.29,32.29,0,0,0-13.2-2.6q-14.91,0-23.66,9.34t-9.94,26.38h21.77q.47-8.74,2.72-12.42c1.5-2.44,3.9-3.67,7.22-3.67s5.79,1.07,7,3.19,1.78,6.42,1.78,12.87v7.55q-12.94,7.32-21.3,13.1a68.47,68.47,0,0,0-13.18,11.45,33.59,33.59,0,0,0-6.7,11.68,45.3,45.3,0,0,0-1.88,13.58q0,12.75,5.17,20.3T168.35,798q11.76,0,24.47-15.09.24,2.4.36,4a28.28,28.28,0,0,0,.36,2.88,28.28,28.28,0,0,1,.36,2.88,26.8,26.8,0,0,0,.6,3.71Zm24.56-227.39c0-58.6-39.31-96.29-39.31-96.29S162,510.33,162,568.93c0,23.85,17.28,48,39,48S240.57,592.45,240.57,568.93Zm58.7,187.46c-6.75-42.63-39.68-65.52-39.68-65.52s-.1.12-.26.34V637.12H237.8V794.93h21.53V792a24.34,24.34,0,0,0,16.7,3.8C291.85,793.31,302,773.49,299.27,756.39Zm78,10.67a45.33,45.33,0,0,0-1.06-10.39,26.66,26.66,0,0,0-4.12-9,55.26,55.26,0,0,0-8.35-9.32q-5.29-4.83-13.76-11.21-4.71-3.54-7.65-6.14a33,33,0,0,1-4.7-5,16.74,16.74,0,0,1-2.47-4.36,13.65,13.65,0,0,1-.71-4.61,10.59,10.59,0,0,1,2.66-7.55,9.24,9.24,0,0,1,7.06-2.84,8.92,8.92,0,0,1,7.41,3.2c1.69,2.13,3.09,6,4.16,11.47l20.59-4.73q-4.5-29.56-31.47-29.57-14.43,0-23.19,8.38t-8.75,22.07a37.06,37.06,0,0,0,1.29,10,31.48,31.48,0,0,0,4.47,9.21,58,58,0,0,0,8.59,9.56q5.42,4.95,13.89,11.32a92.9,92.9,0,0,1,7.29,5.91,39.64,39.64,0,0,1,4.47,4.72,12,12,0,0,1,2.23,4.25,17.38,17.38,0,0,1,.59,4.72c0,3.46-.94,6.18-2.83,8.14a10,10,0,0,1-7.58,3,11,11,0,0,1-9.22-4.26q-3.33-4.26-5.45-14.9l-20.11,4.73Q315.73,798,344.83,798q15,0,23.68-8.38T377.24,767.06Zm.51-305.78H353.86V619.09h23.89Zm92.75,67.79a94.23,94.23,0,0,0,2.13-21.65,92.05,92.05,0,0,0-2.14-21.53,33.27,33.27,0,0,0-7-14.31,26.66,26.66,0,0,0-12.66-7.93,67.14,67.14,0,0,0-19.17-2.37H398.57V619.09h23.9v-65.3h9.42A66.18,66.18,0,0,0,451,551.43a26.47,26.47,0,0,0,12.6-7.93A33.51,33.51,0,0,0,470.5,529.07Z" data-stylerecorder="true" style="fill: rgb(255, 255, 255); text-align: left; line-height: 0px; letter-spacing: 0px; font-weight: 400; font-size: 19px;"></path></svg>